{
  "source": "C:\\Users\\Peter\\Desktop\\stuff\\MIUN\\quantitative_research\\video_compression\\videos\\BVI-HD\\BVI-HD_CDVL_videos\\ORIG\\PlasmaAveragePan_1920x1080_60fps.mp4",
  "output": "C:\\Users\\Peter\\Desktop\\stuff\\MIUN\\quantitative_research\\video_compression\\compressed_videos\\BVI-HD\\h264\\1.5\\PlasmaAveragePan_1920x1080_60fps_h264.mp4",
  "codec": "h264",
  "ok": "Input #0, mov,mp4,m4a,3gp,3g2,mj2, from 'C:\\Users\\Peter\\Desktop\\stuff\\MIUN\\quantitative_research\\video_compression\\videos\\BVI-HD\\BVI-HD_CDVL_videos\\ORIG\\PlasmaAveragePan_1920x1080_60fps.mp4':\n  Metadata:\n    major_brand     : isom\n    minor_version   : 512\n    compatible_brands: isomiso2avc1mp41\n    encoder         : Lavf54.28.101\n  Duration: 00:00:05.00, start: 0.000000, bitrate: 73730 kb/s\n  Stream #0:0[0x1](und): Video: h264 (High 4:4:4 Predictive) (avc1 / 0x31637661), yuv420p(progressive), 1920x1080, 73727 kb/s, 60 fps, 60 tbr, 60 tbn (default)\n    Metadata:\n      handler_name    : VideoHandler\n      vendor_id       : [0][0][0][0]\n[out#0/mp4 @ 000001b3dcbaa600] Codec AVOption b:a (set bitrate (in bits/s)) has not been used for any stream. The most likely reason is either wrong type (e.g. a video option with no video streams) or that it is a private option of some decoder which was not actually used for any stream.\nStream mapping:\n  Stream #0:0 -> #0:0 (h264 (native) -> h264 (libx264))\nPress [q] to stop, [?] for help\n[libx264 @ 000001b3dd580280] using cpu capabilities: MMX2 SSE2Fast SSSE3 SSE4.2 AVX FMA3 BMI2 AVX2\n[libx264 @ 000001b3dd580280] profile High, level 5.0, 4:2:0, 8-bit\n[libx264 @ 000001b3dd580280] 264 - core 165 r3222 b35605a - H.264/MPEG-4 AVC codec - Copyleft 2003-2025 - http://www.videolan.org/x264.html - options: cabac=1 ref=5 deblock=1:0:0 analyse=0x3:0x113 me=hex subme=8 psy=1 psy_rd=1.00:0.00 mixed_ref=1 me_range=16 chroma_me=1 trellis=2 8x8dct=1 cqm=0 deadzone=21,11 fast_pskip=1 chroma_qp_offset=-2 threads=18 lookahead_threads=3 sliced_threads=0 nr=0 decimate=1 interlaced=0 bluray_compat=0 constrained_intra=0 bframes=3 b_pyramid=2 b_adapt=1 b_bias=0 direct=3 weightb=1 open_gop=0 weightp=2 keyint=250 keyint_min=25 scenecut=40 intra_refresh=0 rc_lookahead=50 rc=cbr mbtree=1 bitrate=1500 ratetol=1.0 qcomp=0.60 qpmin=0 qpmax=69 qpstep=4 vbv_maxrate=1500 vbv_bufsize=1500 nal_hrd=none filler=0 ip_ratio=1.40 aq=1:1.00\nOutput #0, mp4, to 'C:\\Users\\Peter\\Desktop\\stuff\\MIUN\\quantitative_research\\video_compression\\compressed_videos\\BVI-HD\\h264\\1.5\\PlasmaAveragePan_1920x1080_60fps_h264.mp4':\n  Metadata:\n    major_brand     : isom\n    minor_version   : 512\n    compatible_brands: isomiso2avc1mp41\n    encoder         : Lavf62.3.100\n  Stream #0:0(und): Video: h264 (avc1 / 0x31637661), yuv420p(tv, progressive), 1920x1080, q=2-31, 1500 kb/s, 60 fps, 15360 tbn (default)\n    Metadata:\n      encoder         : Lavc62.11.100 libx264\n      handler_name    : VideoHandler\n      vendor_id       : [0][0][0][0]\n    Side data:\n      cpb: bitrate max/min/avg: 1500000/0/1500000 buffer size: 1500000 vbv_delay: N/A\nframe=    0 fps=0.0 q=0.0 size=       0KiB time=N/A bitrate=N/A speed=N/A elapsed=0:00:00.51    \nframe=    0 fps=0.0 q=0.0 size=       0KiB time=N/A bitrate=N/A speed=N/A elapsed=0:00:01.04    \nframe=   60 fps= 37 q=41.0 size=       0KiB time=00:00:00.90 bitrate=   0.4kbits/s speed=0.558x elapsed=0:00:01.61    \nframe=  108 fps= 50 q=41.0 size=     256KiB time=00:00:01.76 bitrate=1187.3kbits/s speed=0.814x elapsed=0:00:02.17    \nframe=  139 fps= 51 q=42.0 size=     256KiB time=00:00:02.21 bitrate= 946.3kbits/s speed=0.818x elapsed=0:00:02.71    \nframe=  187 fps= 57 q=41.0 size=     512KiB time=00:00:03.08 bitrate=1360.4kbits/s speed=0.943x elapsed=0:00:03.27    \nframe=  256 fps= 67 q=40.0 size=     512KiB time=00:00:04.16 bitrate=1006.7kbits/s speed= 1.1x elapsed=0:00:03.80    \n[mp4 @ 000001b3dcbaa700] Starting second pass: moving the moov atom to the beginning of the file\n[out#0/mp4 @ 000001b3dcbaa600] video:877KiB audio:0KiB subtitle:0KiB other streams:0KiB global headers:0KiB muxing overhead: 0.496261%\nframe=  300 fps= 74 q=-1.0 Lsize=     882KiB time=00:00:04.96 bitrate=1454.5kbits/s speed=1.23x elapsed=0:00:04.03    \n[libx264 @ 000001b3dd580280] frame I:3     Avg QP:27.98  size:  8442\n[libx264 @ 000001b3dd580280] frame P:75    Avg QP:38.09  size:  4509\n[libx264 @ 000001b3dd580280] frame B:222   Avg QP:40.09  size:  2406\n[libx264 @ 000001b3dd580280] consecutive B-frames:  1.0%  0.7%  1.0% 97.3%\n[libx264 @ 000001b3dd580280] mb I  I16..4: 12.6% 87.2%  0.2%\n[libx264 @ 000001b3dd580280] mb P  I16..4:  1.9%  5.8%  0.0%  P16..4:  7.2%  0.6%  0.3%  0.0%  0.0%    skip:84.2%\n[libx264 @ 000001b3dd580280] mb B  I16..4:  0.2%  0.4%  0.0%  B16..8: 10.3%  0.7%  0.0%  direct: 0.6%  skip:87.7%  L0:51.8% L1:46.1% BI: 2.1%\n[libx264 @ 000001b3dd580280] 8x8 transform intra:77.6% inter:99.6%\n[libx264 @ 000001b3dd580280] direct mvs  spatial:95.5% temporal:4.5%\n[libx264 @ 000001b3dd580280] coded y,uvDC,uvAC intra: 10.6% 45.1% 20.4% inter: 0.7% 4.7% 0.1%\n[libx264 @ 000001b3dd580280] i16 v,h,dc,p: 44% 25%  7% 24%\n[libx264 @ 000001b3dd580280] i8 v,h,dc,ddl,ddr,vr,hd,vl,hu: 19%  9% 46%  4%  5%  4%  6%  3%  4%\n[libx264 @ 000001b3dd580280] i4 v,h,dc,ddl,ddr,vr,hd,vl,hu: 13% 15% 11%  7% 16% 10% 16%  4%  7%\n[libx264 @ 000001b3dd580280] i8c dc,h,v,p: 67% 14% 11%  7%\n[libx264 @ 000001b3dd580280] Weighted P-Frames: Y:1.3% UV:1.3%\n[libx264 @ 000001b3dd580280] ref P L0: 52.6%  1.8% 21.4% 13.0% 10.9%  0.2%\n[libx264 @ 000001b3dd580280] ref B L0: 73.6% 15.6%  8.1%  2.8%\n[libx264 @ 000001b3dd580280] ref B L1: 93.4%  6.6%\n[libx264 @ 000001b3dd580280] kb/s:1436.41\n",
  "seconds": 4.2970123291015625,
  "probe_out": {}
}